<svg width="29" height="40" fill="none" xmlns="http://www.w3.org/2000/svg"><path fill-rule="evenodd" clip-rule="evenodd" d="M16.187 0c-2.035 0-3.69 1.633-3.69 3.64 0 2.02 1.655 3.64 3.69 3.64 2.047 0 3.707-1.62 3.707-3.64 0-2.007-1.66-3.64-3.707-3.64ZM7.099 7.166c-1.84-.026-4.408 1.656-5.202 4.58l-.464 1.71-1.25 4.6c-.578 2.046.197 2.392 2.52 3.006 2.325.615 3.17.697 3.705-1.36l2.485-9.154C9.52 8.242 8.53 7.188 7.1 7.167Zm6.74.75c-1.693.07-3.161 1.227-3.583 2.873L7.484 20.996a3.772 3.772 0 0 0 .784 3.548c-.064 3.189-.47 4.739-1.216 5.961-.905 1.483-2.75 2.937-5.732 5.995-1.93 1.962 1.07 4.809 2.982 2.83 2.81-2.881 4.832-4.322 6.295-6.719 1.09-1.788 1.62-3.879 1.773-6.929a3.832 3.832 0 0 0 2.575-2.714l2.195-8.08c1.113 1.188 1.992 1.928 3.136 2.357 1.369.513 2.704.464 4.792.422l-2.284 21.326c-.116 1.083 1.53 1.255 1.646.171l2.304-21.52h.105c1.808.006 1.992-2.604.2-2.845l.122-1.135a.82.82 0 0 0-.83-.915.824.824 0 0 0-.815.742l-.14 1.298c-2.105.012-3.434.024-4.07-.215-3.255-1.23-3.143-5.49-6.16-6.489a3.914 3.914 0 0 0-1.306-.167l-.001-.001Zm1.928 16.034a4.963 4.963 0 0 1-3.072 2.768c1.202 1.41 1.788 2.277 2.086 3.101.483 1.334.447 3.361.728 8.206.135 2.741 4.313 2.506 4.131-.233-.273-4.717-.097-6.955-.961-9.345-.555-1.533-1.451-2.807-2.913-4.497Z" fill="#fff"/></svg>